<?xml version="1.0" encoding="utf-8" standalone="no"?>
<!DOCTYPE svg PUBLIC "-//W3C//DTD SVG 1.1//EN"
  "http://www.w3.org/Graphics/SVG/1.1/DTD/svg11.dtd">
<svg xmlns:xlink="http://www.w3.org/1999/xlink" width="570.959531pt" height="347.04pt" viewBox="0 0 570.959531 347.04" xmlns="http://www.w3.org/2000/svg" version="1.1">
 <metadata>
  <rdf:RDF xmlns:dc="http://purl.org/dc/elements/1.1/" xmlns:cc="http://creativecommons.org/ns#" xmlns:rdf="http://www.w3.org/1999/02/22-rdf-syntax-ns#">
   <cc:Work>
    <dc:type rdf:resource="http://purl.org/dc/dcmitype/StillImage"/>
    <dc:date>2026-09-29T18:06:27.323838</dc:date>
    <dc:format>image/svg+xml</dc:format>
    <dc:creator>
     <cc:Agent>
      <dc:title>Matplotlib v3.11.2, https://matplotlib.org/</dc:title>
     </cc:Agent>
    </dc:creator>
   </cc:Work>
  </rdf:RDF>
 </metadata>
 <defs>
  <style type="text/css">*{stroke-linejoin: round; stroke-linecap: butt}</style>
 </defs>
 <g id="figure_1">
  <g id="patch_1">
   <path d="M 0 347.04 
L 570.959531 347.04 
L 570.959531 -0 
L 0 -0 
z
" style="fill: #ffffff"/>
  </g>
  <g id="axes_1">
   <g id="patch_2">
    <path d="M 173.52 306.576 
C 208.795111 306.576 242.661529 292.54807 267.6048 267.6048 
C 292.54807 242.661529 306.576 208.795111 306.576 173.52 
C 306.576 138.244889 292.54807 104.378471 267.6048 79.4352 
C 242.661529 54.49193 208.795111 40.464 173.52 40.464 
L 173.52 91.02528 
C 195.390569 91.02528 216.387748 99.722596 231.852576 115.187424 
C 247.317404 130.652252 256.01472 151.649431 256.01472 173.52 
C 256.01472 195.390569 247.317404 216.387748 231.852576 231.852576 
C 216.387748 247.317404 195.390569 256.01472 173.52 256.01472 
z
" style="fill: #2a78d6; stroke: #ffffff; stroke-width: 3; stroke-linejoin: miter"/>
   </g>
   <g id="patch_3">
    <path d="M 106.992 58.290124 
C 81.630608 72.932531 61.799098 95.546033 50.592285 122.601673 
C 39.385472 149.657313 37.418306 179.670469 44.997773 207.957427 
C 52.577241 236.244385 69.287435 261.252957 92.520639 279.080422 
C 115.753844 296.907887 144.235187 306.576 173.52 306.576 
L 173.52 256.01472 
C 155.363416 256.01472 137.704983 250.02049 123.300396 238.967462 
C 108.89581 227.914433 98.535489 212.409118 93.836219 194.871205 
C 89.13695 177.333291 90.356593 158.725134 97.304817 141.950637 
C 104.253041 125.176141 116.548577 111.155769 132.27264 102.077477 
z
" style="fill: #eb6834; stroke: #ffffff; stroke-width: 3; stroke-linejoin: miter"/>
   </g>
   <g id="patch_4">
    <path d="M 150.415068 42.48542 
C 142.786951 43.830463 135.290833 45.839041 128.012168 48.488259 
C 120.733503 51.137476 113.700054 54.417227 106.992 58.290124 
L 132.27264 102.077477 
C 136.431633 99.676281 140.792372 97.642835 145.305144 96.00032 
C 149.817916 94.357806 154.465509 93.112487 159.194942 92.27856 
z
" style="fill: #1baf7a; stroke: #ffffff; stroke-width: 3; stroke-linejoin: miter"/>
   </g>
   <g id="patch_5">
    <path d="M 173.52 40.464 
C 169.648944 40.464 165.779731 40.632933 161.923405 40.970318 
C 158.06708 41.307703 154.227314 41.813218 150.415068 42.48542 
L 159.194942 92.27856 
C 161.558535 91.861795 163.93919 91.548376 166.330111 91.339197 
C 168.721033 91.130019 171.119945 91.02528 173.52 91.02528 
z
" style="fill: #b4b2a9; stroke: #ffffff; stroke-width: 3; stroke-linejoin: miter"/>
   </g>
   <g id="matplotlib.axis_1"/>
   <g id="matplotlib.axis_2"/>
   <g id="text_1">
    <!-- 36 -->
    <g style="fill: #0b0b0b" transform="translate(145.68875 173.266145) scale(0.4 -0.4)">
     <defs>
      <path id="DejaVuSans-Bold-16" d="M 2981 2516 
Q 3453 2394 3698 2092 
Q 3944 1791 3944 1325 
Q 3944 631 3412 270 
Q 2881 -91 1863 -91 
Q 1503 -91 1142 -33 
Q 781 25 428 141 
L 428 1069 
Q 766 900 1098 814 
Q 1431 728 1753 728 
Q 2231 728 2486 893 
Q 2741 1059 2741 1369 
Q 2741 1688 2480 1852 
Q 2219 2016 1709 2016 
L 1228 2016 
L 1228 2791 
L 1734 2791 
Q 2188 2791 2409 2933 
Q 2631 3075 2631 3366 
Q 2631 3634 2415 3781 
Q 2200 3928 1806 3928 
Q 1516 3928 1219 3862 
Q 922 3797 628 3669 
L 628 4550 
Q 984 4650 1334 4700 
Q 1684 4750 2022 4750 
Q 2931 4750 3382 4451 
Q 3834 4153 3834 3553 
Q 3834 3144 3618 2883 
Q 3403 2622 2981 2516 
z
" transform="scale(0.015625)"/>
      <path id="DejaVuSans-Bold-19" d="M 2316 2303 
Q 2000 2303 1842 2098 
Q 1684 1894 1684 1484 
Q 1684 1075 1842 870 
Q 2000 666 2316 666 
Q 2634 666 2792 870 
Q 2950 1075 2950 1484 
Q 2950 1894 2792 2098 
Q 2634 2303 2316 2303 
z
M 3803 4544 
L 3803 3681 
Q 3506 3822 3243 3889 
Q 2981 3956 2731 3956 
Q 2194 3956 1894 3657 
Q 1594 3359 1544 2772 
Q 1750 2925 1990 3001 
Q 2231 3078 2516 3078 
Q 3231 3078 3670 2659 
Q 4109 2241 4109 1563 
Q 4109 813 3618 361 
Q 3128 -91 2303 -91 
Q 1394 -91 895 523 
Q 397 1138 397 2266 
Q 397 3422 980 4083 
Q 1563 4744 2578 4744 
Q 2900 4744 3203 4694 
Q 3506 4644 3803 4544 
z
" transform="scale(0.015625)"/>
     </defs>
     <use xlink:href="#DejaVuSans-Bold-16"/>
     <use xlink:href="#DejaVuSans-Bold-19" transform="translate(69.578125 0)"/>
    </g>
   </g>
   <g id="text_2">
    <!-- studies -->
    <g style="fill: #52514e" transform="translate(144.755 204.288075) scale(0.16 -0.16)">
     <defs>
      <path id="DejaVuSans-56" d="M 2834 3397 
L 2834 2853 
Q 2591 2978 2328 3040 
Q 2066 3103 1784 3103 
Q 1356 3103 1142 2972 
Q 928 2841 928 2578 
Q 928 2378 1081 2264 
Q 1234 2150 1697 2047 
L 1894 2003 
Q 2506 1872 2764 1633 
Q 3022 1394 3022 966 
Q 3022 478 2636 193 
Q 2250 -91 1575 -91 
Q 1294 -91 989 -36 
Q 684 19 347 128 
L 347 722 
Q 666 556 975 473 
Q 1284 391 1588 391 
Q 1994 391 2212 530 
Q 2431 669 2431 922 
Q 2431 1156 2273 1281 
Q 2116 1406 1581 1522 
L 1381 1569 
Q 847 1681 609 1914 
Q 372 2147 372 2553 
Q 372 3047 722 3315 
Q 1072 3584 1716 3584 
Q 2034 3584 2315 3537 
Q 2597 3491 2834 3397 
z
" transform="scale(0.015625)"/>
      <path id="DejaVuSans-57" d="M 1172 4494 
L 1172 3500 
L 2356 3500 
L 2356 3053 
L 1172 3053 
L 1172 1153 
Q 1172 725 1289 603 
Q 1406 481 1766 481 
L 2356 481 
L 2356 0 
L 1766 0 
Q 1100 0 847 248 
Q 594 497 594 1153 
L 594 3053 
L 172 3053 
L 172 3500 
L 594 3500 
L 594 4494 
L 1172 4494 
z
" transform="scale(0.015625)"/>
      <path id="DejaVuSans-58" d="M 544 1381 
L 544 3500 
L 1119 3500 
L 1119 1403 
Q 1119 906 1312 657 
Q 1506 409 1894 409 
Q 2359 409 2629 706 
Q 2900 1003 2900 1516 
L 2900 3500 
L 3475 3500 
L 3475 0 
L 2900 0 
L 2900 538 
Q 2691 219 2414 64 
Q 2138 -91 1772 -91 
Q 1169 -91 856 284 
Q 544 659 544 1381 
z
M 1991 3584 
L 1991 3584 
z
" transform="scale(0.015625)"/>
      <path id="DejaVuSans-47" d="M 2906 2969 
L 2906 4863 
L 3481 4863 
L 3481 0 
L 2906 0 
L 2906 525 
Q 2725 213 2448 61 
Q 2172 -91 1784 -91 
Q 1150 -91 751 415 
Q 353 922 353 1747 
Q 353 2572 751 3078 
Q 1150 3584 1784 3584 
Q 2172 3584 2448 3432 
Q 2725 3281 2906 2969 
z
M 947 1747 
Q 947 1113 1208 752 
Q 1469 391 1925 391 
Q 2381 391 2643 752 
Q 2906 1113 2906 1747 
Q 2906 2381 2643 2742 
Q 2381 3103 1925 3103 
Q 1469 3103 1208 2742 
Q 947 2381 947 1747 
z
" transform="scale(0.015625)"/>
      <path id="DejaVuSans-4c" d="M 603 3500 
L 1178 3500 
L 1178 0 
L 603 0 
L 603 3500 
z
M 603 4863 
L 1178 4863 
L 1178 4134 
L 603 4134 
L 603 4863 
z
" transform="scale(0.015625)"/>
      <path id="DejaVuSans-48" d="M 3597 1894 
L 3597 1613 
L 953 1613 
Q 991 1019 1311 708 
Q 1631 397 2203 397 
Q 2534 397 2845 478 
Q 3156 559 3463 722 
L 3463 178 
Q 3153 47 2828 -22 
Q 2503 -91 2169 -91 
Q 1331 -91 842 396 
Q 353 884 353 1716 
Q 353 2575 817 3079 
Q 1281 3584 2069 3584 
Q 2775 3584 3186 3129 
Q 3597 2675 3597 1894 
z
M 3022 2063 
Q 3016 2534 2758 2815 
Q 2500 3097 2075 3097 
Q 1594 3097 1305 2825 
Q 1016 2553 972 2059 
L 3022 2063 
z
" transform="scale(0.015625)"/>
     </defs>
     <use xlink:href="#DejaVuSans-56"/>
     <use xlink:href="#DejaVuSans-57" transform="translate(52.09375 0)"/>
     <use xlink:href="#DejaVuSans-58" transform="translate(91.296875 0)"/>
     <use xlink:href="#DejaVuSans-47" transform="translate(154.671875 0)"/>
     <use xlink:href="#DejaVuSans-4c" transform="translate(218.15625 0)"/>
     <use xlink:href="#DejaVuSans-48" transform="translate(245.9375 0)"/>
     <use xlink:href="#DejaVuSans-56" transform="translate(307.46875 0)"/>
    </g>
   </g>
   <g id="legend_1">
    <g id="patch_6">
     <path d="M 353.34 131.437969 
L 371.34 131.437969 
L 371.34 116.062969 
L 353.34 116.062969 
z
" style="fill: #2a78d6; stroke: #ffffff; stroke-width: 3; stroke-linejoin: miter"/>
    </g>
    <g id="text_3">
     <!-- Quantitative: 18 (50%) -->
     <g style="fill: #0b0b0b" transform="translate(383.34 128.812969) scale(0.15 -0.15)">
      <defs>
       <path id="DejaVuSans-34" d="M 2522 4238 
Q 1834 4238 1429 3725 
Q 1025 3213 1025 2328 
Q 1025 1447 1429 934 
Q 1834 422 2522 422 
Q 3209 422 3611 934 
Q 4013 1447 4013 2328 
Q 4013 3213 3611 3725 
Q 3209 4238 2522 4238 
z
M 3406 84 
L 4238 -825 
L 3475 -825 
L 2784 -78 
Q 2681 -84 2626 -87 
Q 2572 -91 2522 -91 
Q 1538 -91 948 567 
Q 359 1225 359 2328 
Q 359 3434 948 4092 
Q 1538 4750 2522 4750 
Q 3503 4750 4090 4092 
Q 4678 3434 4678 2328 
Q 4678 1516 4351 937 
Q 4025 359 3406 84 
z
" transform="scale(0.015625)"/>
       <path id="DejaVuSans-44" d="M 2194 1759 
Q 1497 1759 1228 1600 
Q 959 1441 959 1056 
Q 959 750 1161 570 
Q 1363 391 1709 391 
Q 2188 391 2477 730 
Q 2766 1069 2766 1631 
L 2766 1759 
L 2194 1759 
z
M 3341 1997 
L 3341 0 
L 2766 0 
L 2766 531 
Q 2569 213 2275 61 
Q 1981 -91 1556 -91 
Q 1019 -91 701 211 
Q 384 513 384 1019 
Q 384 1609 779 1909 
Q 1175 2209 1959 2209 
L 2766 2209 
L 2766 2266 
Q 2766 2663 2505 2880 
Q 2244 3097 1772 3097 
Q 1472 3097 1187 3025 
Q 903 2953 641 2809 
L 641 3341 
Q 956 3463 1253 3523 
Q 1550 3584 1831 3584 
Q 2591 3584 2966 3190 
Q 3341 2797 3341 1997 
z
" transform="scale(0.015625)"/>
       <path id="DejaVuSans-51" d="M 3513 2113 
L 3513 0 
L 2938 0 
L 2938 2094 
Q 2938 2591 2744 2837 
Q 2550 3084 2163 3084 
Q 1697 3084 1428 2787 
Q 1159 2491 1159 1978 
L 1159 0 
L 581 0 
L 581 3500 
L 1159 3500 
L 1159 2956 
Q 1366 3272 1645 3428 
Q 1925 3584 2291 3584 
Q 2894 3584 3203 3211 
Q 3513 2838 3513 2113 
z
" transform="scale(0.015625)"/>
       <path id="DejaVuSans-59" d="M 191 3500 
L 800 3500 
L 1894 563 
L 2988 3500 
L 3597 3500 
L 2284 0 
L 1503 0 
L 191 3500 
z
" transform="scale(0.015625)"/>
       <path id="DejaVuSans-1d" d="M 750 794 
L 1409 794 
L 1409 0 
L 750 0 
L 750 794 
z
M 750 3309 
L 1409 3309 
L 1409 2516 
L 750 2516 
L 750 3309 
z
" transform="scale(0.015625)"/>
       <path id="DejaVuSans-3" transform="scale(0.015625)"/>
       <path id="DejaVuSans-14" d="M 794 531 
L 1825 531 
L 1825 4091 
L 703 3866 
L 703 4441 
L 1819 4666 
L 2450 4666 
L 2450 531 
L 3481 531 
L 3481 0 
L 794 0 
L 794 531 
z
" transform="scale(0.015625)"/>
       <path id="DejaVuSans-1b" d="M 2034 2216 
Q 1584 2216 1326 1975 
Q 1069 1734 1069 1313 
Q 1069 891 1326 650 
Q 1584 409 2034 409 
Q 2484 409 2743 651 
Q 3003 894 3003 1313 
Q 3003 1734 2745 1975 
Q 2488 2216 2034 2216 
z
M 1403 2484 
Q 997 2584 770 2862 
Q 544 3141 544 3541 
Q 544 4100 942 4425 
Q 1341 4750 2034 4750 
Q 2731 4750 3128 4425 
Q 3525 4100 3525 3541 
Q 3525 3141 3298 2862 
Q 3072 2584 2669 2484 
Q 3125 2378 3379 2068 
Q 3634 1759 3634 1313 
Q 3634 634 3220 271 
Q 2806 -91 2034 -91 
Q 1263 -91 848 271 
Q 434 634 434 1313 
Q 434 1759 690 2068 
Q 947 2378 1403 2484 
z
M 1172 3481 
Q 1172 3119 1398 2916 
Q 1625 2713 2034 2713 
Q 2441 2713 2670 2916 
Q 2900 3119 2900 3481 
Q 2900 3844 2670 4047 
Q 2441 4250 2034 4250 
Q 1625 4250 1398 4047 
Q 1172 3844 1172 3481 
z
" transform="scale(0.015625)"/>
       <path id="DejaVuSans-b" d="M 1984 4856 
Q 1566 4138 1362 3434 
Q 1159 2731 1159 2009 
Q 1159 1288 1364 580 
Q 1569 -128 1984 -844 
L 1484 -844 
Q 1016 -109 783 600 
Q 550 1309 550 2009 
Q 550 2706 781 3412 
Q 1013 4119 1484 4856 
L 1984 4856 
z
" transform="scale(0.015625)"/>
       <path id="DejaVuSans-18" d="M 691 4666 
L 3169 4666 
L 3169 4134 
L 1269 4134 
L 1269 2991 
Q 1406 3038 1543 3061 
Q 1681 3084 1819 3084 
Q 2600 3084 3056 2656 
Q 3513 2228 3513 1497 
Q 3513 744 3044 326 
Q 2575 -91 1722 -91 
Q 1428 -91 1123 -41 
Q 819 9 494 109 
L 494 744 
Q 775 591 1075 516 
Q 1375 441 1709 441 
Q 2250 441 2565 725 
Q 2881 1009 2881 1497 
Q 2881 1984 2565 2268 
Q 2250 2553 1709 2553 
Q 1456 2553 1204 2497 
Q 953 2441 691 2322 
L 691 4666 
z
" transform="scale(0.015625)"/>
       <path id="DejaVuSans-13" d="M 2034 4250 
Q 1547 4250 1301 3770 
Q 1056 3291 1056 2328 
Q 1056 1369 1301 889 
Q 1547 409 2034 409 
Q 2525 409 2770 889 
Q 3016 1369 3016 2328 
Q 3016 3291 2770 3770 
Q 2525 4250 2034 4250 
z
M 2034 4750 
Q 2819 4750 3233 4129 
Q 3647 3509 3647 2328 
Q 3647 1150 3233 529 
Q 2819 -91 2034 -91 
Q 1250 -91 836 529 
Q 422 1150 422 2328 
Q 422 3509 836 4129 
Q 1250 4750 2034 4750 
z
" transform="scale(0.015625)"/>
       <path id="DejaVuSans-8" d="M 4653 2053 
Q 4381 2053 4226 1822 
Q 4072 1591 4072 1178 
Q 4072 772 4226 539 
Q 4381 306 4653 306 
Q 4919 306 5073 539 
Q 5228 772 5228 1178 
Q 5228 1588 5073 1820 
Q 4919 2053 4653 2053 
z
M 4653 2450 
Q 5147 2450 5437 2106 
Q 5728 1763 5728 1178 
Q 5728 594 5436 251 
Q 5144 -91 4653 -91 
Q 4153 -91 3862 251 
Q 3572 594 3572 1178 
Q 3572 1766 3864 2108 
Q 4156 2450 4653 2450 
z
M 1428 4353 
Q 1159 4353 1004 4120 
Q 850 3888 850 3481 
Q 850 3069 1003 2837 
Q 1156 2606 1428 2606 
Q 1700 2606 1854 2837 
Q 2009 3069 2009 3481 
Q 2009 3884 1853 4118 
Q 1697 4353 1428 4353 
z
M 4250 4750 
L 4750 4750 
L 1831 -91 
L 1331 -91 
L 4250 4750 
z
M 1428 4750 
Q 1922 4750 2215 4408 
Q 2509 4066 2509 3481 
Q 2509 2891 2217 2550 
Q 1925 2209 1428 2209 
Q 931 2209 642 2551 
Q 353 2894 353 3481 
Q 353 4063 643 4406 
Q 934 4750 1428 4750 
z
" transform="scale(0.015625)"/>
       <path id="DejaVuSans-c" d="M 513 4856 
L 1013 4856 
Q 1481 4119 1714 3412 
Q 1947 2706 1947 2009 
Q 1947 1309 1714 600 
Q 1481 -109 1013 -844 
L 513 -844 
Q 928 -128 1133 580 
Q 1338 1288 1338 2009 
Q 1338 2731 1133 3434 
Q 928 4138 513 4856 
z
" transform="scale(0.015625)"/>
      </defs>
      <use xlink:href="#DejaVuSans-34"/>
      <use xlink:href="#DejaVuSans-58" transform="translate(78.71875 0)"/>
      <use xlink:href="#DejaVuSans-44" transform="translate(142.09375 0)"/>
      <use xlink:href="#DejaVuSans-51" transform="translate(203.375 0)"/>
      <use xlink:href="#DejaVuSans-57" transform="translate(266.75 0)"/>
      <use xlink:href="#DejaVuSans-4c" transform="translate(305.953125 0)"/>
      <use xlink:href="#DejaVuSans-57" transform="translate(333.734375 0)"/>
      <use xlink:href="#DejaVuSans-44" transform="translate(372.9375 0)"/>
      <use xlink:href="#DejaVuSans-57" transform="translate(434.21875 0)"/>
      <use xlink:href="#DejaVuSans-4c" transform="translate(473.421875 0)"/>
      <use xlink:href="#DejaVuSans-59" transform="translate(501.203125 0)"/>
      <use xlink:href="#DejaVuSans-48" transform="translate(560.390625 0)"/>
      <use xlink:href="#DejaVuSans-1d" transform="translate(621.921875 0)"/>
      <use xlink:href="#DejaVuSans-3" transform="translate(655.609375 0)"/>
      <use xlink:href="#DejaVuSans-14" transform="translate(687.390625 0)"/>
      <use xlink:href="#DejaVuSans-1b" transform="translate(751.015625 0)"/>
      <use xlink:href="#DejaVuSans-3" transform="translate(814.640625 0)"/>
      <use xlink:href="#DejaVuSans-b" transform="translate(846.421875 0)"/>
      <use xlink:href="#DejaVuSans-18" transform="translate(885.4375 0)"/>
      <use xlink:href="#DejaVuSans-13" transform="translate(949.0625 0)"/>
      <use xlink:href="#DejaVuSans-8" transform="translate(1012.6875 0)"/>
      <use xlink:href="#DejaVuSans-c" transform="translate(1107.703125 0)"/>
     </g>
    </g>
    <g id="patch_7">
     <path d="M 353.34 164.291484 
L 371.34 164.291484 
L 371.34 148.916484 
L 353.34 148.916484 
z
" style="fill: #eb6834; stroke: #ffffff; stroke-width: 3; stroke-linejoin: miter"/>
    </g>
    <g id="text_4">
     <!-- Qualitative: 15 (42%) -->
     <g style="fill: #0b0b0b" transform="translate(383.34 161.666484) scale(0.15 -0.15)">
      <defs>
       <path id="DejaVuSans-4f" d="M 603 4863 
L 1178 4863 
L 1178 0 
L 603 0 
L 603 4863 
z
" transform="scale(0.015625)"/>
       <path id="DejaVuSans-17" d="M 2419 4116 
L 825 1625 
L 2419 1625 
L 2419 4116 
z
M 2253 4666 
L 3047 4666 
L 3047 1625 
L 3713 1625 
L 3713 1100 
L 3047 1100 
L 3047 0 
L 2419 0 
L 2419 1100 
L 313 1100 
L 313 1709 
L 2253 4666 
z
" transform="scale(0.015625)"/>
       <path id="DejaVuSans-15" d="M 1228 531 
L 3431 531 
L 3431 0 
L 469 0 
L 469 531 
Q 828 903 1448 1529 
Q 2069 2156 2228 2338 
Q 2531 2678 2651 2914 
Q 2772 3150 2772 3378 
Q 2772 3750 2511 3984 
Q 2250 4219 1831 4219 
Q 1534 4219 1204 4116 
Q 875 4013 500 3803 
L 500 4441 
Q 881 4594 1212 4672 
Q 1544 4750 1819 4750 
Q 2544 4750 2975 4387 
Q 3406 4025 3406 3419 
Q 3406 3131 3298 2873 
Q 3191 2616 2906 2266 
Q 2828 2175 2409 1742 
Q 1991 1309 1228 531 
z
" transform="scale(0.015625)"/>
      </defs>
      <use xlink:href="#DejaVuSans-34"/>
      <use xlink:href="#DejaVuSans-58" transform="translate(78.71875 0)"/>
      <use xlink:href="#DejaVuSans-44" transform="translate(142.09375 0)"/>
      <use xlink:href="#DejaVuSans-4f" transform="translate(203.375 0)"/>
      <use xlink:href="#DejaVuSans-4c" transform="translate(231.15625 0)"/>
      <use xlink:href="#DejaVuSans-57" transform="translate(258.9375 0)"/>
      <use xlink:href="#DejaVuSans-44" transform="translate(298.140625 0)"/>
      <use xlink:href="#DejaVuSans-57" transform="translate(359.421875 0)"/>
      <use xlink:href="#DejaVuSans-4c" transform="translate(398.625 0)"/>
      <use xlink:href="#DejaVuSans-59" transform="translate(426.40625 0)"/>
      <use xlink:href="#DejaVuSans-48" transform="translate(485.59375 0)"/>
      <use xlink:href="#DejaVuSans-1d" transform="translate(547.125 0)"/>
      <use xlink:href="#DejaVuSans-3" transform="translate(580.8125 0)"/>
      <use xlink:href="#DejaVuSans-14" transform="translate(612.59375 0)"/>
      <use xlink:href="#DejaVuSans-18" transform="translate(676.21875 0)"/>
      <use xlink:href="#DejaVuSans-3" transform="translate(739.84375 0)"/>
      <use xlink:href="#DejaVuSans-b" transform="translate(771.625 0)"/>
      <use xlink:href="#DejaVuSans-17" transform="translate(810.640625 0)"/>
      <use xlink:href="#DejaVuSans-15" transform="translate(874.265625 0)"/>
      <use xlink:href="#DejaVuSans-8" transform="translate(937.890625 0)"/>
      <use xlink:href="#DejaVuSans-c" transform="translate(1032.90625 0)"/>
     </g>
    </g>
    <g id="patch_8">
     <path d="M 353.34 197.145 
L 371.34 197.145 
L 371.34 181.77 
L 353.34 181.77 
z
" style="fill: #1baf7a; stroke: #ffffff; stroke-width: 3; stroke-linejoin: miter"/>
    </g>
    <g id="text_5">
     <!-- Mixed methods: 2 (6%) -->
     <g style="fill: #0b0b0b" transform="translate(383.34 194.52) scale(0.15 -0.15)">
      <defs>
       <path id="DejaVuSans-30" d="M 628 4666 
L 1569 4666 
L 2759 1491 
L 3956 4666 
L 4897 4666 
L 4897 0 
L 4281 0 
L 4281 4097 
L 3078 897 
L 2444 897 
L 1241 4097 
L 1241 0 
L 628 0 
L 628 4666 
z
" transform="scale(0.015625)"/>
       <path id="DejaVuSans-5b" d="M 3513 3500 
L 2247 1797 
L 3578 0 
L 2900 0 
L 1881 1375 
L 863 0 
L 184 0 
L 1544 1831 
L 300 3500 
L 978 3500 
L 1906 2253 
L 2834 3500 
L 3513 3500 
z
" transform="scale(0.015625)"/>
       <path id="DejaVuSans-50" d="M 3328 2828 
Q 3544 3216 3844 3400 
Q 4144 3584 4550 3584 
Q 5097 3584 5394 3201 
Q 5691 2819 5691 2113 
L 5691 0 
L 5113 0 
L 5113 2094 
Q 5113 2597 4934 2840 
Q 4756 3084 4391 3084 
Q 3944 3084 3684 2787 
Q 3425 2491 3425 1978 
L 3425 0 
L 2847 0 
L 2847 2094 
Q 2847 2600 2669 2842 
Q 2491 3084 2119 3084 
Q 1678 3084 1418 2786 
Q 1159 2488 1159 1978 
L 1159 0 
L 581 0 
L 581 3500 
L 1159 3500 
L 1159 2956 
Q 1356 3278 1631 3431 
Q 1906 3584 2284 3584 
Q 2666 3584 2933 3390 
Q 3200 3197 3328 2828 
z
" transform="scale(0.015625)"/>
       <path id="DejaVuSans-4b" d="M 3513 2113 
L 3513 0 
L 2938 0 
L 2938 2094 
Q 2938 2591 2744 2837 
Q 2550 3084 2163 3084 
Q 1697 3084 1428 2787 
Q 1159 2491 1159 1978 
L 1159 0 
L 581 0 
L 581 4863 
L 1159 4863 
L 1159 2956 
Q 1366 3272 1645 3428 
Q 1925 3584 2291 3584 
Q 2894 3584 3203 3211 
Q 3513 2838 3513 2113 
z
" transform="scale(0.015625)"/>
       <path id="DejaVuSans-52" d="M 1959 3097 
Q 1497 3097 1228 2736 
Q 959 2375 959 1747 
Q 959 1119 1226 758 
Q 1494 397 1959 397 
Q 2419 397 2687 759 
Q 2956 1122 2956 1747 
Q 2956 2369 2687 2733 
Q 2419 3097 1959 3097 
z
M 1959 3584 
Q 2709 3584 3137 3096 
Q 3566 2609 3566 1747 
Q 3566 888 3137 398 
Q 2709 -91 1959 -91 
Q 1206 -91 779 398 
Q 353 888 353 1747 
Q 353 2609 779 3096 
Q 1206 3584 1959 3584 
z
" transform="scale(0.015625)"/>
       <path id="DejaVuSans-19" d="M 2113 2584 
Q 1688 2584 1439 2293 
Q 1191 2003 1191 1497 
Q 1191 994 1439 701 
Q 1688 409 2113 409 
Q 2538 409 2786 701 
Q 3034 994 3034 1497 
Q 3034 2003 2786 2293 
Q 2538 2584 2113 2584 
z
M 3366 4563 
L 3366 3988 
Q 3128 4100 2886 4159 
Q 2644 4219 2406 4219 
Q 1781 4219 1451 3797 
Q 1122 3375 1075 2522 
Q 1259 2794 1537 2939 
Q 1816 3084 2150 3084 
Q 2853 3084 3261 2657 
Q 3669 2231 3669 1497 
Q 3669 778 3244 343 
Q 2819 -91 2113 -91 
Q 1303 -91 875 529 
Q 447 1150 447 2328 
Q 447 3434 972 4092 
Q 1497 4750 2381 4750 
Q 2619 4750 2861 4703 
Q 3103 4656 3366 4563 
z
" transform="scale(0.015625)"/>
      </defs>
      <use xlink:href="#DejaVuSans-30"/>
      <use xlink:href="#DejaVuSans-4c" transform="translate(86.28125 0)"/>
      <use xlink:href="#DejaVuSans-5b" transform="translate(114.0625 0)"/>
      <use xlink:href="#DejaVuSans-48" transform="translate(170.171875 0)"/>
      <use xlink:href="#DejaVuSans-47" transform="translate(231.703125 0)"/>
      <use xlink:href="#DejaVuSans-3" transform="translate(295.1875 0)"/>
      <use xlink:href="#DejaVuSans-50" transform="translate(326.96875 0)"/>
      <use xlink:href="#DejaVuSans-48" transform="translate(424.375 0)"/>
      <use xlink:href="#DejaVuSans-57" transform="translate(485.90625 0)"/>
      <use xlink:href="#DejaVuSans-4b" transform="translate(525.109375 0)"/>
      <use xlink:href="#DejaVuSans-52" transform="translate(588.484375 0)"/>
      <use xlink:href="#DejaVuSans-47" transform="translate(649.671875 0)"/>
      <use xlink:href="#DejaVuSans-56" transform="translate(713.15625 0)"/>
      <use xlink:href="#DejaVuSans-1d" transform="translate(765.25 0)"/>
      <use xlink:href="#DejaVuSans-3" transform="translate(798.9375 0)"/>
      <use xlink:href="#DejaVuSans-15" transform="translate(830.71875 0)"/>
      <use xlink:href="#DejaVuSans-3" transform="translate(894.34375 0)"/>
      <use xlink:href="#DejaVuSans-b" transform="translate(926.125 0)"/>
      <use xlink:href="#DejaVuSans-19" transform="translate(965.140625 0)"/>
      <use xlink:href="#DejaVuSans-8" transform="translate(1028.765625 0)"/>
      <use xlink:href="#DejaVuSans-c" transform="translate(1123.78125 0)"/>
     </g>
    </g>
    <g id="patch_9">
     <path d="M 353.34 229.998516 
L 371.34 229.998516 
L 371.34 214.623516 
L 353.34 214.623516 
z
" style="fill: #b4b2a9; stroke: #ffffff; stroke-width: 3; stroke-linejoin: miter"/>
    </g>
    <g id="text_6">
     <!-- Not reported: 1 (3%) -->
     <g style="fill: #0b0b0b" transform="translate(383.34 227.373516) scale(0.15 -0.15)">
      <defs>
       <path id="DejaVuSans-31" d="M 628 4666 
L 1478 4666 
L 3547 763 
L 3547 4666 
L 4159 4666 
L 4159 0 
L 3309 0 
L 1241 3903 
L 1241 0 
L 628 0 
L 628 4666 
z
" transform="scale(0.015625)"/>
       <path id="DejaVuSans-55" d="M 2631 2963 
Q 2534 3019 2420 3045 
Q 2306 3072 2169 3072 
Q 1681 3072 1420 2755 
Q 1159 2438 1159 1844 
L 1159 0 
L 581 0 
L 581 3500 
L 1159 3500 
L 1159 2956 
Q 1341 3275 1631 3429 
Q 1922 3584 2338 3584 
Q 2397 3584 2469 3576 
Q 2541 3569 2628 3553 
L 2631 2963 
z
" transform="scale(0.015625)"/>
       <path id="DejaVuSans-53" d="M 1159 525 
L 1159 -1331 
L 581 -1331 
L 581 3500 
L 1159 3500 
L 1159 2969 
Q 1341 3281 1617 3432 
Q 1894 3584 2278 3584 
Q 2916 3584 3314 3078 
Q 3713 2572 3713 1747 
Q 3713 922 3314 415 
Q 2916 -91 2278 -91 
Q 1894 -91 1617 61 
Q 1341 213 1159 525 
z
M 3116 1747 
Q 3116 2381 2855 2742 
Q 2594 3103 2138 3103 
Q 1681 3103 1420 2742 
Q 1159 2381 1159 1747 
Q 1159 1113 1420 752 
Q 1681 391 2138 391 
Q 2594 391 2855 752 
Q 3116 1113 3116 1747 
z
" transform="scale(0.015625)"/>
       <path id="DejaVuSans-16" d="M 2597 2516 
Q 3050 2419 3304 2112 
Q 3559 1806 3559 1356 
Q 3559 666 3084 287 
Q 2609 -91 1734 -91 
Q 1441 -91 1130 -33 
Q 819 25 488 141 
L 488 750 
Q 750 597 1062 519 
Q 1375 441 1716 441 
Q 2309 441 2620 675 
Q 2931 909 2931 1356 
Q 2931 1769 2642 2001 
Q 2353 2234 1838 2234 
L 1294 2234 
L 1294 2753 
L 1863 2753 
Q 2328 2753 2575 2939 
Q 2822 3125 2822 3475 
Q 2822 3834 2567 4026 
Q 2313 4219 1838 4219 
Q 1578 4219 1281 4162 
Q 984 4106 628 3988 
L 628 4550 
Q 988 4650 1302 4700 
Q 1616 4750 1894 4750 
Q 2613 4750 3031 4423 
Q 3450 4097 3450 3541 
Q 3450 3153 3228 2886 
Q 3006 2619 2597 2516 
z
" transform="scale(0.015625)"/>
      </defs>
      <use xlink:href="#DejaVuSans-31"/>
      <use xlink:href="#DejaVuSans-52" transform="translate(74.8125 0)"/>
      <use xlink:href="#DejaVuSans-57" transform="translate(136 0)"/>
      <use xlink:href="#DejaVuSans-3" transform="translate(175.203125 0)"/>
      <use xlink:href="#DejaVuSans-55" transform="translate(206.984375 0)"/>
      <use xlink:href="#DejaVuSans-48" transform="translate(245.890625 0)"/>
      <use xlink:href="#DejaVuSans-53" transform="translate(307.421875 0)"/>
      <use xlink:href="#DejaVuSans-52" transform="translate(370.90625 0)"/>
      <use xlink:href="#DejaVuSans-55" transform="translate(432.09375 0)"/>
      <use xlink:href="#DejaVuSans-57" transform="translate(473.203125 0)"/>
      <use xlink:href="#DejaVuSans-48" transform="translate(512.40625 0)"/>
      <use xlink:href="#DejaVuSans-47" transform="translate(573.9375 0)"/>
      <use xlink:href="#DejaVuSans-1d" transform="translate(637.421875 0)"/>
      <use xlink:href="#DejaVuSans-3" transform="translate(671.109375 0)"/>
      <use xlink:href="#DejaVuSans-14" transform="translate(702.890625 0)"/>
      <use xlink:href="#DejaVuSans-3" transform="translate(766.515625 0)"/>
      <use xlink:href="#DejaVuSans-b" transform="translate(798.296875 0)"/>
      <use xlink:href="#DejaVuSans-16" transform="translate(837.3125 0)"/>
      <use xlink:href="#DejaVuSans-8" transform="translate(900.9375 0)"/>
      <use xlink:href="#DejaVuSans-c" transform="translate(995.953125 0)"/>
     </g>
    </g>
   </g>
  </g>
 </g>
</svg>
